<?xml version="1.0" standalone="no"?><!DOCTYPE svg PUBLIC "-//W3C//DTD SVG 1.1//EN" "http://www.w3.org/Graphics/SVG/1.1/DTD/svg11.dtd"><svg t="1641901758080" class="icon" viewBox="0 0 1024 1024" version="1.1" xmlns="http://www.w3.org/2000/svg" p-id="21192" xmlns:xlink="http://www.w3.org/1999/xlink" width="200" height="200"><defs><style type="text/css"></style></defs><path fill="#ccc" d="M329.376 329.376a32 32 0 0 1 45.248 0L512 466.72l137.376-137.344a32 32 0 0 1 47.904 42.24l-2.656 3.008L557.28 512l137.344 137.376 2.656 3.008a32 32 0 0 1-47.904 42.24L512 557.28l-137.376 137.344a32 32 0 0 1-47.904-42.24l2.656-3.008L466.72 512l-137.344-137.376-2.656-3.008a32 32 0 0 1 2.656-42.24z" p-id="21193"></path></svg>