<?xml version="1.0" standalone="no"?><!DOCTYPE svg PUBLIC "-//W3C//DTD SVG 1.1//EN" "http://www.w3.org/Graphics/SVG/1.1/DTD/svg11.dtd"><svg t="1640058222830" class="icon" viewBox="0 0 1024 1024" version="1.1" xmlns="http://www.w3.org/2000/svg" p-id="9817" xmlns:xlink="http://www.w3.org/1999/xlink" width="200" height="200"><defs><style type="text/css"></style></defs><path d="M480 800H224a96 96 0 0 1-95.84-90.368L128 704 127.968 256H96a32 32 0 1 1 0-64h384V128a32 32 0 0 1 64 0v64h384a32 32 0 0 1 0 64h-32.032L896 416.896a32 32 0 0 1-63.776 3.712L832 416.896 831.968 256h-640L192 704a32 32 0 0 0 28.256 31.776L224 736h352a32 32 0 0 1 3.744 63.776L576 800h-32v64h160a32 32 0 0 1 0 64H320a32 32 0 0 1 0-64h160v-64z" fill="#FFFFFF" p-id="9818"></path><path d="M903.328 534.528a32 32 0 0 1 0 45.28l-67.904 67.872 67.904 67.872a32 32 0 0 1-45.248 45.28l-67.936-67.904-67.84 67.904a32 32 0 1 1-45.248-45.28l67.84-67.904-67.84-67.84a32 32 0 1 1 45.248-45.28l67.872 67.904 67.904-67.904a32 32 0 0 1 45.248 0z" fill="#3F9BF0" p-id="9819"></path></svg>