<?xml version="1.0" standalone="no"?><!DOCTYPE svg PUBLIC "-//W3C//DTD SVG 1.1//EN" "http://www.w3.org/Graphics/SVG/1.1/DTD/svg11.dtd"><svg t="1640058273180" class="icon" viewBox="0 0 1024 1024" version="1.1" xmlns="http://www.w3.org/2000/svg" p-id="9945" xmlns:xlink="http://www.w3.org/1999/xlink" width="200" height="200"><defs><style type="text/css"></style></defs><path d="M448 192l5.632 0.16c22.4 1.28 42.72 10.24 58.4 24.32a95.36 95.36 0 0 1 58.336-24.32L576 192h352a96 96 0 0 1 95.84 90.368L1024 288v448a96 96 0 0 1-90.368 95.84L928 832H576c-24.576 0-47.04-9.248-64-24.448A95.648 95.648 0 0 1 448 832H96l-5.632-0.16A96 96 0 0 1 0 736V288l0.16-5.632A96 96 0 0 1 96 192h352z m32 448a32 32 0 0 1 63.776-3.744L544 640v96a32 32 0 0 0 28.256 31.776L576 768h352a32 32 0 0 0 31.776-28.256L960 736V288a32 32 0 0 0-28.256-31.776L928 256H576a32 32 0 0 0-31.776 28.256L544 288v96l-0.224 3.744a32 32 0 0 1-63.584 0L480 384V288l-0.224-3.744A32 32 0 0 0 448 256H96l-3.744 0.224A32 32 0 0 0 64 288v448l0.224 3.744A32 32 0 0 0 96 768h352l3.744-0.224A32 32 0 0 0 480 736v-96z" fill="#FFFFFF" p-id="9946"></path><path d="M832 352a32 32 0 0 1 31.776 28.256L864 384v128a32 32 0 0 1-28.256 31.776L832 544h-128v64h128a32 32 0 0 1 31.776 28.256L864 640a32 32 0 0 1-28.256 31.776L832 672h-160a32 32 0 0 1-31.776-28.256L640 640v-128a32 32 0 0 1 28.256-31.776L672 480h128v-64h-128a32 32 0 0 1-31.776-28.256L640 384a32 32 0 0 1 28.256-31.776L672 352h160zM288 352a32 32 0 0 1 31.776 28.256L320 384v256a32 32 0 0 1-63.776 3.744L256 640v-256a32 32 0 0 1 32-32z" fill="#3F9BF0" p-id="9947"></path></svg>