<?xml version="1.0" standalone="no"?><!DOCTYPE svg PUBLIC "-//W3C//DTD SVG 1.1//EN" "http://www.w3.org/Graphics/SVG/1.1/DTD/svg11.dtd"><svg t="1640058288244" class="icon" viewBox="0 0 1024 1024" version="1.1" xmlns="http://www.w3.org/2000/svg" p-id="10208" xmlns:xlink="http://www.w3.org/1999/xlink" width="200" height="200"><defs><style type="text/css"></style></defs><path d="M509.44 96c22.112 0 40 17.92 40 40V192h370.56a40 40 0 0 1 0 80H864V704a64 64 0 0 1-64 64h-250.56v96h146.56a40 40 0 0 1 0 80h-368a40 40 0 0 1 0-80h141.44v-96H224a64 64 0 0 1-64-64V272H104a40 40 0 1 1 0-80h365.44V136c0-22.08 17.92-40 40-40zM240 272v416h544v-416h-544z" fill="#FFFFFF" p-id="10209"></path><path d="M536 512a40 40 0 0 1 0 80h-176a40 40 0 0 1 0-80h176z m128-143.232a40 40 0 0 1 0 80h-304a40 40 0 0 1 0-80h304z" fill="#3F9BF0" p-id="10210"></path></svg>